# xmcd
# 
# Track frame offsets:
#     150
#     13587
#     27233
#     41725
#     53575
#     65724
#     77646
#     86934
#     99680
#     111382
#     123098
#     136147
#     150600
#     164944
#     179787
#     191123
#     204710
#     215410
#     230481
#     241722
# 
# Disc length: 3410
# 
# Revision: 1
# Processed by: cddbd v1.5.2PL0 Copyright (c) Steve Scherf et al.
# Submitted via: fre:ac v1.0.17
# 
DISCID=230d5014
DTITLE=Various Artist - 100 Blues Tunes [CD 5]
DYEAR=1965
DGENRE=Blues
TTITLE0=Big Memphis Ma Rainey - Caal me anything (but call me)
TTITLE1=Muddy Waters - I'm your hoochie coochie man
TTITLE2=Mabel Scott - No more crying blues
TTITLE3=Bullmoose Jackson - Bullmoose Jackson blues
TTITLE4=Gwen Johnson and Quintin Batiste Orch. - A trumpet blows the blues
TTITLE5=D.A. Hunt - Greyhound blues
TTITLE6=Peppermint Harris - The blues pick on me
TTITLE7=Blues Caravan and John Peek - Train train blues
TTITLE8=Frankie Ervin and Johnny Moore's Three Blazers - Dragnet blues
TTITLE9=Josh White - Bad housing blues
TTITLE10=Mempis Slim - The question
TTITLE11=Charlie Spand - Moanin' the blues
TTITLE12=Bo Carter - Sorry feeling the blues
TTITLE13=Casey Hill - W.P.A. Blues
TTITLE14=Johnny Moore's Three Blazers and Charles Brown - Free lancin' again
TTITLE15=James Cotton - Cotton crop blues
TTITLE16=Jimmy Liggins - Dark hour blues
TTITLE17=Blind Willie McTell - Travellin' blues
TTITLE18=Guitar Slim - Well, i done got over it
TTITLE19=Jimmy McCracklin - The end
EXTD=
EXTT0=
EXTT1=
EXTT2=
EXTT3=
EXTT4=
EXTT5=
EXTT6=
EXTT7=
EXTT8=
EXTT9=
EXTT10=
EXTT11=
EXTT12=
EXTT13=
EXTT14=
EXTT15=
EXTT16=
EXTT17=
EXTT18=
EXTT19=
PLAYORDER=
